<svg xmlns="http://www.w3.org/2000/svg" viewBox="0 0 400 1600" width="100%" height="100%">
  <defs>
    <style>
      .scroll-line {
        stroke-dasharray: 3000;
        stroke-dashoffset: 3000;
        animation: drawPath 4s cubic-bezier(0.4, 0, 0.2, 1) forwards;
      }

      @keyframes drawPath {
        to {
          stroke-dashoffset: 0;
        }
      }
    </style>
  </defs>

  <path class="scroll-line" 
        d="M 200 0 
           C 200 40, 360 40, 360 100 
           C 360 160, 120 120, 80 220 
           C 40 320, 280 280, 280 360 
           C 280 440, 60 400, 60 500 
           C 60 600, 320 540, 320 660 
           C 320 780, 100 720, 100 840 
           C 100 960, 300 920, 300 1020 
           C 300 1120, 80 1080, 80 1200 
           C 80 1320, 340 1280, 340 1380
           C 340 1480, 120 1440, 120 1540
           C 120 1590, 220 1600, 220 1600" 
        fill="none" 
        stroke="#0088cc" 
        stroke-width="10" 
        stroke-linecap="round" 
        stroke-linejoin="round" />
</svg>
